<svg width="40.000000" height="40.000000" viewBox="0 0 40 40" fill="none" xmlns="http://www.w3.org/2000/svg" xmlns:xlink="http://www.w3.org/1999/xlink">
	<desc>
			Created with Pixso.
	</desc>
	<defs>
		<clipPath id="clip1001_3152">
			<rect id="hand-holding-seeding 1" rx="-0.500000" width="22.000000" height="22.000000" transform="translate(9.000000 9.000000)" fill="white" fill-opacity="0"/>
		</clipPath>
	</defs>
	<rect id="Overlay" rx="6.500000" width="39.000000" height="39.000000" transform="translate(0.500000 0.500000)" fill="#FFFFFF" fill-opacity="1.000000"/>
	<rect id="hand-holding-seeding 1" rx="-0.500000" width="22.000000" height="22.000000" transform="translate(9.000000 9.000000)" fill="#FFFFFF" fill-opacity="0"/>
	<g clip-path="url(#clip1001_3152)">
		<path id="Vector" d="M30.58 24.98L26.44 28.75C24.5 30.52 21.98 31.49 19.34 31.49L9.45 31.49C8.92 31.49 8.5 31.07 8.5 30.54C8.5 30.01 8.92 29.58 9.45 29.58L19.34 29.58C21.5 29.58 23.56 28.78 25.15 27.33L29.26 23.59C29.59 23.26 29.67 22.68 29.41 22.32C29.23 22.08 28.98 21.94 28.7 21.91C28.42 21.9 28.14 21.99 27.94 22.19L23.88 25.92C23.37 26.4 22.68 26.7 21.91 26.7L17.12 26.7C16.59 26.7 16.16 26.27 16.16 25.74C16.16 25.21 16.59 24.79 17.12 24.79L21.91 24.79C22.15 24.79 22.87 24.68 22.87 23.83C22.87 23.3 22.44 22.87 21.91 22.87L17.2 22.87C14.9 22.87 12.73 23.77 11.11 25.4L10.15 26.4C9.96 26.6 9.71 26.7 9.45 26.7C9.22 26.7 8.98 26.62 8.79 26.44C8.41 26.08 8.39 25.47 8.76 25.09L9.73 24.06C11.74 22.05 14.39 20.96 17.21 20.96L21.91 20.96C23.1 20.96 24.12 21.68 24.56 22.7L26.62 20.81C27.18 20.24 28.01 19.93 28.85 20.01C29.7 20.07 30.46 20.51 30.96 21.2C31.77 22.33 31.61 23.95 30.58 24.98L30.58 24.98ZM12.33 10.57C12.29 10.01 12.5 9.46 12.9 9.06C13.3 8.66 13.84 8.46 14.4 8.5C17.16 8.69 18.99 9.65 20 11.48C21 9.65 22.83 8.69 25.59 8.5C26.16 8.45 26.7 8.66 27.09 9.06C27.49 9.46 27.7 10.01 27.66 10.57C27.36 14.8 25.28 16.84 20.95 17.09L20.95 18.08C20.95 18.61 20.52 19.04 20 19.04C19.47 19.04 19.04 18.61 19.04 18.08L19.04 17.09C14.71 16.84 12.63 14.8 12.33 10.57ZM20.98 15.17C24.21 14.96 25.52 13.6 25.75 10.43C22.55 10.64 21.2 11.95 20.98 15.17ZM14.27 10.41C14.47 13.6 15.78 14.96 19.01 15.17C18.79 11.95 17.44 10.64 14.27 10.41Z" fill="#00C94E" fill-opacity="1.000000" fill-rule="nonzero"/>
	</g>
</svg>
