<svg width="40.000000" height="40.000000" viewBox="0 0 40 40" fill="none" xmlns="http://www.w3.org/2000/svg" xmlns:xlink="http://www.w3.org/1999/xlink">
	<desc>
			Created with Pixso.
	</desc>
	<defs>
		<clipPath id="clip1001_3068">
			<rect id="child-head 1" rx="-0.500000" width="20.000000" height="19.000000" transform="translate(10.000000 10.500000)" fill="white" fill-opacity="0"/>
		</clipPath>
	</defs>
	<rect id="Overlay" rx="6.500000" width="39.000000" height="39.000000" transform="translate(0.500000 0.500000)" fill="#F3EFFA" fill-opacity="1.000000"/>
	<rect id="child-head 1" rx="-0.500000" width="20.000000" height="19.000000" transform="translate(10.000000 10.500000)" fill="#FFFFFF" fill-opacity="0"/>
	<g clip-path="url(#clip1001_3068)">
		<path id="Vector" d="M30.49 19.58C30.49 19 30.32 18.44 29.98 17.96C29.65 17.49 29.17 17.11 28.61 16.89C28.26 14.96 27.2 13.21 25.62 11.95C24.05 10.69 22.05 9.99 20 9.99C17.94 9.99 15.94 10.69 14.37 11.95C12.79 13.21 11.73 14.96 11.38 16.89C10.74 17.14 10.21 17.6 9.88 18.17C9.55 18.75 9.43 19.41 9.54 20.06C9.66 20.71 10 21.3 10.51 21.74C11.02 22.18 11.67 22.44 12.36 22.49C12.81 23.4 13.42 24.23 14.17 24.95C13.07 26.09 12.38 27.52 12.18 29.06C12.17 29.17 12.17 29.28 12.2 29.38C12.23 29.49 12.29 29.59 12.36 29.67C12.43 29.76 12.52 29.83 12.62 29.89C12.72 29.94 12.83 29.97 12.94 29.99C12.98 29.99 13.01 29.99 13.05 29.99C13.26 29.99 13.47 29.92 13.63 29.79C13.79 29.65 13.89 29.47 13.91 29.27C14.07 28.06 14.63 26.93 15.5 26.04C16.81 26.96 18.38 27.46 19.99 27.49C21.61 27.46 23.17 26.96 24.47 26.04C25.34 26.93 25.9 28.06 26.06 29.26C26.08 29.46 26.18 29.65 26.34 29.78C26.5 29.92 26.71 29.99 26.92 29.99C26.96 29.99 27 29.99 27.03 29.99C27.26 29.96 27.47 29.85 27.61 29.67C27.76 29.5 27.82 29.28 27.79 29.06C27.6 27.53 26.9 26.1 25.81 24.96C26.56 24.24 27.18 23.4 27.64 22.49C28.41 22.44 29.14 22.11 29.67 21.57C30.2 21.03 30.49 20.32 30.49 19.58ZM27.21 20.81C27.01 20.77 26.8 20.81 26.62 20.9C26.44 21 26.3 21.16 26.23 21.35C25.43 23.51 22.73 25.83 19.99 25.83C17.26 25.83 14.56 23.51 13.75 21.35C13.69 21.16 13.55 21 13.37 20.9C13.19 20.8 12.98 20.77 12.78 20.8C12.71 20.82 12.63 20.83 12.56 20.83C12.23 20.82 11.92 20.71 11.68 20.5C11.44 20.29 11.3 20 11.27 19.69C11.24 19.38 11.33 19.08 11.52 18.83C11.72 18.58 12 18.41 12.32 18.35C12.51 18.32 12.68 18.23 12.81 18.1C12.93 17.97 13.02 17.8 13.04 17.62C13.15 16.55 13.54 15.53 14.16 14.64C14.78 13.75 15.62 13.01 16.61 12.49C16.47 13.03 16.46 13.58 16.59 14.11C16.77 14.82 17.18 15.45 17.77 15.91C18.36 16.37 19.09 16.63 19.85 16.66C20.61 16.69 21.36 16.49 21.98 16.08C22.61 15.66 23.08 15.07 23.32 14.38C23.35 14.26 23.36 14.13 23.34 14C23.32 13.87 23.26 13.76 23.18 13.65C23.1 13.55 23 13.47 22.88 13.41C22.76 13.36 22.62 13.33 22.49 13.33L22.36 13.33C22.2 13.33 22.04 13.39 21.91 13.48C21.79 13.58 21.7 13.71 21.65 13.85C21.55 14.15 21.37 14.4 21.12 14.6C20.87 14.8 20.57 14.93 20.26 14.98C19.94 15.02 19.61 14.98 19.31 14.86C19.02 14.75 18.76 14.55 18.57 14.3C18.38 14.05 18.27 13.76 18.25 13.45C18.22 13.15 18.29 12.84 18.43 12.57C18.58 12.29 18.81 12.06 19.08 11.9C19.36 11.75 19.67 11.66 19.99 11.66C21.72 11.66 23.39 12.26 24.68 13.37C25.96 14.47 26.77 15.98 26.95 17.62C26.97 17.8 27.05 17.97 27.18 18.1C27.31 18.23 27.48 18.32 27.67 18.35C27.99 18.41 28.27 18.58 28.47 18.83C28.66 19.08 28.75 19.38 28.72 19.69C28.69 20 28.55 20.29 28.31 20.5C28.07 20.71 27.76 20.82 27.43 20.83C27.36 20.83 27.28 20.82 27.21 20.81Z" fill="#8260C8" fill-opacity="1.000000" fill-rule="nonzero"/>
		<path id="Vector" d="M19.12 19.58C19.12 20.27 18.53 20.83 17.81 20.83C17.08 20.83 16.5 20.27 16.5 19.58C16.5 18.89 17.08 18.33 17.81 18.33C18.53 18.33 19.12 18.89 19.12 19.58Z" fill="#8260C8" fill-opacity="1.000000" fill-rule="evenodd"/>
		<path id="Vector" d="M23.5 19.58C23.5 20.27 22.91 20.83 22.18 20.83C21.46 20.83 20.87 20.27 20.87 19.58C20.87 18.89 21.46 18.33 22.18 18.33C22.91 18.33 23.5 18.89 23.5 19.58Z" fill="#8260C8" fill-opacity="1.000000" fill-rule="evenodd"/>
	</g>
</svg>
