<svg width="40.000000" height="40.000000" viewBox="0 0 40 40" fill="none" xmlns="http://www.w3.org/2000/svg" xmlns:xlink="http://www.w3.org/1999/xlink">
	<desc>
			Created with Pixso.
	</desc>
	<defs>
		<clipPath id="clip1001_3212">
			<rect id="layout-fluid 1" rx="0.000000" width="17.000000" height="17.000000" transform="translate(11.500000 11.500000)" fill="white" fill-opacity="0"/>
		</clipPath>
	</defs>
	<rect id="Overlay" rx="6.500000" width="39.000000" height="39.000000" transform="translate(0.500000 0.500000)" fill="#FF3768" fill-opacity="0.300000"/>
	<rect id="layout-fluid 1" rx="0.000000" width="17.000000" height="17.000000" transform="translate(11.500000 11.500000)" fill="#FFFFFF" fill-opacity="0"/>
	<g clip-path="url(#clip1001_3212)">
		<path id="Vector" d="M12.5 19.25L20.75 19.25C21.14 19.25 21.52 19.09 21.81 18.81C22.09 18.52 22.25 18.14 22.25 17.75L22.25 12.5C22.25 12.1 22.09 11.72 21.81 11.43C21.52 11.15 21.14 11 20.75 11L12.5 11C12.1 11 11.72 11.15 11.43 11.43C11.15 11.72 11 12.1 11 12.5L11 17.75C11 18.14 11.15 18.52 11.43 18.81C11.72 19.09 12.1 19.25 12.5 19.25ZM12.5 12.5L20.75 12.5L20.75 17.75L12.5 17.75L12.5 12.5Z" fill="#FF3768" fill-opacity="1.000000" fill-rule="nonzero"/>
		<path id="Vector" d="M27.5 11L25.25 11C24.85 11 24.47 11.15 24.18 11.43C23.9 11.72 23.75 12.1 23.75 12.5L23.75 17.75C23.75 18.14 23.9 18.52 24.18 18.81C24.47 19.09 24.85 19.25 25.25 19.25L27.5 19.25C27.89 19.25 28.27 19.09 28.56 18.81C28.84 18.52 29 18.14 29 17.75L29 12.5C29 12.1 28.84 11.72 28.56 11.43C28.27 11.15 27.89 11 27.5 11ZM27.5 17.75L25.25 17.75L25.25 12.5L27.5 12.5L27.5 17.75Z" fill="#FF3768" fill-opacity="1.000000" fill-rule="nonzero"/>
		<path id="Vector" d="M14.75 20.75L12.5 20.75C12.1 20.75 11.72 20.9 11.43 21.18C11.15 21.47 11 21.85 11 22.25L11 27.5C11 27.89 11.15 28.27 11.43 28.56C11.72 28.84 12.1 29 12.5 29L14.75 29C15.14 29 15.52 28.84 15.81 28.56C16.09 28.27 16.25 27.89 16.25 27.5L16.25 22.25C16.25 21.85 16.09 21.47 15.81 21.18C15.52 20.9 15.14 20.75 14.75 20.75ZM14.75 27.5L12.5 27.5L12.5 22.25L14.75 22.25L14.75 27.5Z" fill="#FF3768" fill-opacity="1.000000" fill-rule="nonzero"/>
		<path id="Vector" d="M27.5 20.75L19.25 20.75C18.85 20.75 18.47 20.9 18.18 21.18C17.9 21.47 17.75 21.85 17.75 22.25L17.75 27.5C17.75 27.89 17.9 28.27 18.18 28.56C18.47 28.84 18.85 29 19.25 29L27.5 29C27.89 29 28.27 28.84 28.56 28.56C28.84 28.27 29 27.89 29 27.5L29 22.25C29 21.85 28.84 21.47 28.56 21.18C28.27 20.9 27.89 20.75 27.5 20.75ZM27.5 27.5L19.25 27.5L19.25 22.25L27.5 22.25L27.5 27.5Z" fill="#FF3768" fill-opacity="1.000000" fill-rule="nonzero"/>
	</g>
</svg>
