<svg width="40.000000" height="40.000000" viewBox="0 0 40 40" fill="none" xmlns="http://www.w3.org/2000/svg" xmlns:xlink="http://www.w3.org/1999/xlink">
	<desc>
			Created with Pixso.
	</desc>
	<defs>
		<clipPath id="clip1001_3207">
			<rect id="circle-8 1" rx="0.000000" width="21.000000" height="21.000000" transform="translate(9.500000 9.500000)" fill="white" fill-opacity="0"/>
		</clipPath>
	</defs>
	<rect id="Overlay" rx="6.500000" width="39.000000" height="39.000000" transform="translate(0.500000 0.500000)" fill="#8260C8" fill-opacity="0.100000"/>
	<rect id="circle-8 1" rx="0.000000" width="21.000000" height="21.000000" transform="translate(9.500000 9.500000)" fill="#FFFFFF" fill-opacity="0"/>
	<g clip-path="url(#clip1001_3207)">
		<path id="Vector" d="M22.3 19.46C22.86 18.89 23.2 18.11 23.2 17.25C23.2 15.48 21.76 14.04 20 14.04C18.23 14.04 16.79 15.48 16.79 17.25C16.79 18.11 17.13 18.89 17.69 19.46C16.86 20.14 16.33 21.14 16.33 22.29C16.33 24.31 17.97 25.95 20 25.95C22.02 25.95 23.66 24.31 23.66 22.29C23.66 21.14 23.13 20.14 22.3 19.46ZM18.62 17.25C18.62 16.49 19.24 15.87 20 15.87C20.75 15.87 21.37 16.49 21.37 17.25C21.37 18 20.75 18.62 20 18.62C19.24 18.62 18.62 18 18.62 17.25ZM20 24.12C18.98 24.12 18.16 23.3 18.16 22.29C18.16 21.28 18.98 20.45 20 20.45C21.01 20.45 21.83 21.28 21.83 22.29C21.83 23.3 21.01 24.12 20 24.12ZM20 9C13.93 9 9 13.93 9 20C9 26.06 13.93 31 20 31C26.06 31 31 26.06 31 20C31 13.93 26.06 9 20 9ZM20 29.16C14.94 29.16 10.83 25.05 10.83 20C10.83 14.94 14.94 10.83 20 10.83C25.05 10.83 29.16 14.94 29.16 20C29.16 25.05 25.05 29.16 20 29.16Z" fill="#8260C8" fill-opacity="1.000000" fill-rule="nonzero"/>
	</g>
</svg>
