<svg width="40.000000" height="40.000000" viewBox="0 0 40 40" fill="none" xmlns="http://www.w3.org/2000/svg" xmlns:xlink="http://www.w3.org/1999/xlink">
	<desc>
			Created with Pixso.
	</desc>
	<defs>
		<clipPath id="clip1001_3145">
			<rect id="palette 1" rx="-0.500000" width="21.000000" height="21.000000" transform="translate(9.500000 9.500000)" fill="white" fill-opacity="0"/>
		</clipPath>
	</defs>
	<rect id="Overlay" rx="6.500000" width="39.000000" height="39.000000" transform="translate(0.500000 0.500000)" fill="#FFFFFF" fill-opacity="1.000000"/>
	<rect id="palette 1" rx="-0.500000" width="21.000000" height="21.000000" transform="translate(9.500000 9.500000)" fill="#FFFFFF" fill-opacity="0"/>
	<g clip-path="url(#clip1001_3145)">
		<path id="Vector" d="M24.68 16.37C24.42 16.44 24.18 16.59 24.01 16.79C23.83 17 23.71 17.25 23.67 17.52C23.64 17.79 23.68 18.06 23.8 18.31C23.92 18.55 24.11 18.76 24.35 18.89C24.58 19.03 24.85 19.09 25.12 19.08C25.39 19.06 25.66 18.96 25.87 18.8C26.09 18.63 26.25 18.41 26.34 18.15C26.43 17.89 26.44 17.61 26.37 17.35C26.32 17.18 26.24 17.01 26.13 16.87C26.02 16.73 25.88 16.6 25.73 16.51C25.57 16.42 25.4 16.36 25.22 16.34C25.04 16.32 24.86 16.33 24.68 16.37Z" fill="#8260C8" fill-opacity="1.000000" fill-rule="nonzero"/>
		<path id="Vector" d="M20.1 13.62C19.84 13.69 19.6 13.84 19.42 14.04C19.24 14.25 19.13 14.5 19.09 14.77C19.05 15.04 19.1 15.31 19.22 15.56C19.34 15.8 19.53 16.01 19.76 16.14C20 16.28 20.27 16.34 20.54 16.33C20.81 16.31 21.07 16.21 21.29 16.05C21.5 15.88 21.67 15.66 21.75 15.4C21.84 15.14 21.85 14.86 21.78 14.6C21.74 14.43 21.66 14.26 21.55 14.12C21.44 13.98 21.3 13.85 21.14 13.76C20.99 13.67 20.81 13.61 20.64 13.59C20.46 13.57 20.27 13.58 20.1 13.62Z" fill="#8260C8" fill-opacity="1.000000" fill-rule="nonzero"/>
		<path id="Vector" d="M15.52 16.37C15.25 16.44 15.02 16.59 14.84 16.79C14.66 17 14.54 17.25 14.51 17.52C14.47 17.79 14.52 18.06 14.64 18.31C14.76 18.55 14.94 18.76 15.18 18.89C15.41 19.03 15.69 19.09 15.96 19.08C16.23 19.06 16.49 18.96 16.7 18.8C16.92 18.63 17.08 18.41 17.17 18.15C17.26 17.89 17.27 17.61 17.2 17.35C17.15 17.18 17.07 17.01 16.96 16.87C16.85 16.73 16.72 16.6 16.56 16.51C16.4 16.42 16.23 16.36 16.05 16.34C15.87 16.32 15.69 16.33 15.52 16.37Z" fill="#8260C8" fill-opacity="1.000000" fill-rule="nonzero"/>
		<path id="Vector" d="M15.52 21.87C15.25 21.94 15.02 22.09 14.84 22.29C14.66 22.5 14.54 22.75 14.51 23.02C14.47 23.29 14.52 23.56 14.64 23.81C14.76 24.05 14.94 24.26 15.18 24.39C15.41 24.53 15.69 24.59 15.96 24.58C16.23 24.56 16.49 24.46 16.7 24.3C16.92 24.13 17.08 23.91 17.17 23.65C17.26 23.39 17.27 23.11 17.2 22.85C17.15 22.68 17.07 22.51 16.96 22.37C16.85 22.23 16.72 22.1 16.56 22.01C16.4 21.92 16.23 21.86 16.05 21.84C15.87 21.82 15.69 21.83 15.52 21.87Z" fill="#8260C8" fill-opacity="1.000000" fill-rule="nonzero"/>
		<path id="Vector" d="M20.45 9C18.98 8.95 17.51 9.2 16.13 9.73C14.75 10.26 13.49 11.06 12.43 12.08C11.37 13.11 10.52 14.34 9.95 15.7C9.37 17.06 9.07 18.52 9.07 20C9.07 22.91 10.23 25.71 12.3 27.77C14.36 29.83 17.15 30.99 20.07 31C20.38 31 20.69 30.98 20.99 30.95C21.22 30.93 21.43 30.83 21.59 30.66C21.74 30.49 21.83 30.26 21.83 30.03L21.8 26.74C21.79 26.09 21.98 25.46 22.33 24.91C22.69 24.37 23.2 23.94 23.8 23.69C24.4 23.44 25.06 23.37 25.7 23.5C26.34 23.62 26.92 23.94 27.38 24.4L27.47 24.49C27.68 24.7 27.94 24.85 28.22 24.93C28.51 25.02 28.81 25.03 29.09 24.96C29.38 24.9 29.64 24.77 29.86 24.59C30.08 24.4 30.25 24.16 30.36 23.89C30.86 22.56 31.1 21.14 31.07 19.72C30.97 16.93 29.82 14.28 27.85 12.29C25.88 10.31 23.24 9.13 20.45 9ZM28.69 23.12L28.67 23.11C27.96 22.39 27.04 21.9 26.05 21.71C25.06 21.51 24.03 21.62 23.09 22.01C22.16 22.4 21.37 23.06 20.81 23.91C20.25 24.75 19.96 25.75 19.97 26.76L19.99 29.16C17.56 29.15 15.23 28.17 13.52 26.45C11.81 24.72 10.85 22.39 10.86 19.95C10.87 17.52 11.85 15.2 13.58 13.48C15.3 11.77 17.64 10.82 20.07 10.83C20.18 10.83 20.29 10.83 20.39 10.83C22.72 10.94 24.92 11.92 26.56 13.58C28.19 15.23 29.15 17.44 29.24 19.77C29.27 20.91 29.08 22.04 28.69 23.11L28.69 23.12Z" fill="#8260C8" fill-opacity="1.000000" fill-rule="nonzero"/>
	</g>
</svg>
