<svg width="40.000000" height="40.000000" viewBox="0 0 40 40" fill="none" xmlns="http://www.w3.org/2000/svg" xmlns:xlink="http://www.w3.org/1999/xlink">
	<desc>
			Created with Pixso.
	</desc>
	<defs>
		<clipPath id="clip1001_3173">
			<rect id="smartphone 1" rx="-0.500000" width="23.000000" height="24.000000" transform="translate(9.000000 9.000000)" fill="white" fill-opacity="0"/>
		</clipPath>
	</defs>
	<rect id="Background" rx="6.500000" width="39.000000" height="39.000000" transform="translate(0.500000 0.500000)" fill="#FFFFFF" fill-opacity="1.000000"/>
	<rect id="flame 1" rx="-0.500000" width="22.000000" height="22.000000" transform="translate(9.000000 9.000000)" fill="#FFFFFF" fill-opacity="0"/>
	<rect id="smartphone 1" rx="-0.500000" width="23.000000" height="24.000000" transform="translate(9.000000 9.000000)" fill="#FFFFFF" fill-opacity="0"/>
	<g clip-path="url(#clip1001_3173)">
		<path id="Vector" d="M23.5 8.5L17.5 8.5C16.17 8.5 14.9 9.05 13.96 10.02C13.02 11 12.5 12.32 12.5 13.7L12.5 28.29C12.5 29.67 13.02 30.99 13.96 31.97C14.9 32.94 16.17 33.49 17.5 33.5L23.5 33.5C24.82 33.49 26.09 32.94 27.03 31.97C27.97 30.99 28.49 29.67 28.5 28.29L28.5 13.7C28.49 12.32 27.97 11 27.03 10.02C26.09 9.05 24.82 8.5 23.5 8.5ZM17.5 10.58L23.5 10.58C24.29 10.58 25.05 10.91 25.62 11.49C26.18 12.08 26.5 12.87 26.5 13.7L26.5 25.16L14.5 25.16L14.5 13.7C14.5 12.87 14.81 12.08 15.37 11.49C15.94 10.91 16.7 10.58 17.5 10.58ZM23.5 31.41L17.5 31.41C16.7 31.41 15.94 31.08 15.37 30.5C14.81 29.91 14.5 29.12 14.5 28.29L14.5 27.25L26.5 27.25L26.5 28.29C26.5 29.12 26.18 29.91 25.62 30.5C25.05 31.08 24.29 31.41 23.5 31.41Z" fill="#F53466" fill-opacity="1.000000" fill-rule="nonzero"/>
		<path id="Vector" d="M21.5 29.33C21.5 29.9 21.05 30.37 20.5 30.37C19.94 30.37 19.5 29.9 19.5 29.33C19.5 28.75 19.94 28.29 20.5 28.29C21.05 28.29 21.5 28.75 21.5 29.33Z" fill="#F53466" fill-opacity="1.000000" fill-rule="evenodd"/>
	</g>
</svg>
