<svg width="24.000000" height="24.000000" viewBox="0 0 24 24" fill="none" xmlns="http://www.w3.org/2000/svg" xmlns:xlink="http://www.w3.org/1999/xlink">
	<desc>
			Created with Pixso.
	</desc>
	<defs>
		<clipPath id="clip1001_3726">
			<rect id="smartphone1 1" rx="0.000000" width="23.000000" height="23.000000" transform="translate(0.500000 0.500000)" fill="white" fill-opacity="0"/>
		</clipPath>
	</defs>
	<g clip-path="url(#clip1001_3726)">
		<path id="Vector" d="M15 0L9 0C7.67 0 6.4 0.52 5.46 1.46C4.52 2.4 4 3.67 4 5L4 19C4 20.32 4.52 21.59 5.46 22.53C6.4 23.47 7.67 23.99 9 24L15 24C16.32 23.99 17.59 23.47 18.53 22.53C19.47 21.59 19.99 20.32 20 19L20 5C19.99 3.67 19.47 2.4 18.53 1.46C17.59 0.52 16.32 0 15 0ZM9 2L15 2C15.79 2 16.55 2.31 17.12 2.87C17.68 3.44 18 4.2 18 5L18 16L6 16L6 5C6 4.2 6.31 3.44 6.87 2.87C7.44 2.31 8.2 2 9 2ZM15 22L9 22C8.2 22 7.44 21.68 6.87 21.12C6.31 20.55 6 19.79 6 19L6 18L18 18L18 19C18 19.79 17.68 20.55 17.12 21.12C16.55 21.68 15.79 22 15 22Z" fill="#26262A" fill-opacity="1.000000" fill-rule="nonzero"/>
		<path id="Vector" d="M13 20C13 20.55 12.55 21 12 21C11.44 21 11 20.55 11 20C11 19.44 11.44 19 12 19C12.55 19 13 19.44 13 20Z" fill="#26262A" fill-opacity="1.000000" fill-rule="evenodd"/>
	</g>
</svg>
