<svg width="24.000000" height="24.000000" viewBox="0 0 24 24" fill="none" xmlns="http://www.w3.org/2000/svg" xmlns:xlink="http://www.w3.org/1999/xlink">
	<desc>
			Created with Pixso.
	</desc>
	<defs>
		<clipPath id="clip1001_3724">
			<rect id="smart-home 2" rx="0.000000" width="23.000000" height="23.000000" transform="translate(0.500000 0.500000)" fill="white" fill-opacity="0"/>
		</clipPath>
	</defs>
	<g clip-path="url(#clip1001_3724)">
		<path id="Vector" d="M22.08 6.56L15.08 1.08C13.26 -0.35 10.73 -0.35 8.91 1.08L1.91 6.56C0.69 7.51 0 8.95 0 10.5L0 19C0 21.75 2.24 24 5 24L19 24C21.75 24 24 21.75 24 19L24 10.5C24 8.95 23.3 7.51 22.08 6.56ZM22 19C22 20.65 20.65 22 19 22L5 22C3.34 22 2 20.65 2 19L2 10.5C2 9.57 2.41 8.71 3.14 8.13L10.14 2.65C10.69 2.22 11.34 2.01 12 2.01C12.65 2.01 13.3 2.22 13.85 2.65L20.85 8.13C21.58 8.71 22 9.57 22 10.5L22 19ZM13.5 17.5C13.5 18.32 12.82 19 12 19C11.17 19 10.5 18.32 10.5 17.5C10.5 16.67 11.17 16 12 16C12.82 16 13.5 16.67 13.5 17.5ZM15.53 13.46C15.92 13.85 15.92 14.48 15.53 14.87C15.34 15.07 15.08 15.17 14.82 15.17C14.57 15.17 14.31 15.07 14.12 14.87C12.95 13.7 11.04 13.7 9.87 14.87C9.48 15.27 8.85 15.27 8.46 14.87C8.07 14.48 8.07 13.85 8.46 13.46C10.41 11.51 13.58 11.51 15.53 13.46ZM18.36 10.63C18.75 11.02 18.75 11.65 18.36 12.04C18.16 12.24 17.91 12.34 17.65 12.34C17.4 12.34 17.14 12.24 16.95 12.04C14.22 9.32 9.77 9.32 7.05 12.04C6.66 12.44 6.02 12.44 5.63 12.04C5.24 11.65 5.24 11.02 5.63 10.63C9.14 7.12 14.85 7.12 18.36 10.63Z" fill="#26262A" fill-opacity="1.000000" fill-rule="nonzero"/>
	</g>
</svg>
