<svg width="32.000000" height="32.000000" viewBox="0 0 32 32" fill="none" xmlns="http://www.w3.org/2000/svg" xmlns:xlink="http://www.w3.org/1999/xlink">
	<desc>
			Created with Pixso.
	</desc>
	<defs>
		<clipPath id="clip1001_3716">
			<rect id="ecc026ad9e82e2de22e39710691029be 1" rx="0.000000" width="31.000000" height="31.000000" transform="translate(0.500000 0.500000)" fill="white" fill-opacity="0"/>
		</clipPath>
	</defs>
	<g clip-path="url(#clip1001_3716)">
		<path id="Shape" d="M17.37 24.79C18.69 23.88 19.98 22.83 21.15 21.68C24.23 18.64 26 15.34 26 11.89C26 9.18 23.86 7 21.25 7C19.8 7 18.46 7.66 17.56 8.8C16.76 9.81 15.23 9.81 14.43 8.8C13.53 7.66 12.19 7 10.75 7C8.13 7 6 9.18 6 11.89C6 15.34 7.76 18.64 10.84 21.68C12.01 22.83 13.3 23.88 14.62 24.79C15.11 25.13 15.58 25.44 16 25.69C16.41 25.44 16.88 25.13 17.37 24.79ZM14.43 6.32L16 7.56L17.56 6.32C17.53 6.28 17.49 6.23 17.45 6.19C18.54 5.43 19.84 5 21.25 5C24.97 5 28 8.08 28 11.89C28 21.09 17.5 27.22 16 27.99C14.5 27.22 4 21.09 4 11.89C4 8.08 7.02 5 10.75 5C12.15 5 13.45 5.43 14.53 6.19C14.5 6.23 14.46 6.28 14.43 6.32Z" fill="#26262A" fill-opacity="1.000000" fill-rule="evenodd"/>
	</g>
</svg>
