<svg width="27.000000" height="27.000000" viewBox="0 0 27 27" fill="none" xmlns="http://www.w3.org/2000/svg" xmlns:xlink="http://www.w3.org/1999/xlink">
	<desc>
			Created with Pixso.
	</desc>
	<defs>
		<clipPath id="clip1001_3708">
			<rect id="7f9193f5041f6c4b6c02269cf20e7b65 1" rx="0.000000" width="26.000000" height="26.000000" transform="translate(0.500000 0.500000)" fill="white" fill-opacity="0"/>
		</clipPath>
	</defs>
	<g clip-path="url(#clip1001_3708)">
		<path id="Combined-Shape" d="M2.53 23.62L24.46 23.62C24.93 23.62 25.31 24 25.31 24.46C25.31 24.93 24.93 25.31 24.46 25.31L2.53 25.31C2.06 25.31 1.68 24.93 1.68 24.46C1.68 24 2.06 23.62 2.53 23.62ZM5.06 12.65L5.06 19.4L6.75 19.4L6.75 12.65L5.06 12.65ZM5.06 10.96L6.75 10.96C7.68 10.96 8.43 11.72 8.43 12.65L8.43 19.4C8.43 20.33 7.68 21.09 6.75 21.09L5.06 21.09C4.13 21.09 3.37 20.33 3.37 19.4L3.37 12.65C3.37 11.72 4.13 10.96 5.06 10.96ZM12.65 3.37L12.65 19.4L14.34 19.4L14.34 3.37L12.65 3.37ZM12.65 1.68L14.34 1.68C15.27 1.68 16.03 2.44 16.03 3.37L16.03 19.4C16.03 20.33 15.27 21.09 14.34 21.09L12.65 21.09C11.72 21.09 10.96 20.33 10.96 19.4L10.96 3.37C10.96 2.44 11.72 1.68 12.65 1.68ZM20.25 8.43L20.25 19.4L21.93 19.4L21.93 8.43L20.25 8.43ZM20.25 6.75L21.93 6.75C22.86 6.75 23.62 7.5 23.62 8.43L23.62 19.4C23.62 20.33 22.86 21.09 21.93 21.09L20.25 21.09C19.31 21.09 18.56 20.33 18.56 19.4L18.56 8.43C18.56 7.5 19.31 6.75 20.25 6.75Z" fill="#26262A" fill-opacity="1.000000" fill-rule="evenodd"/>
	</g>
</svg>
