<svg width="32.000000" height="32.000000" viewBox="0 0 32 32" fill="none" xmlns="http://www.w3.org/2000/svg" xmlns:xlink="http://www.w3.org/1999/xlink">
	<desc>
			Created with Pixso.
	</desc>
	<defs/>
	<path id="Shape" d="M13.99 26.1C18.87 26.1 22.84 22.12 22.84 17.24C22.84 13.33 19.66 10.15 15.76 10.15C11.85 10.15 8.67 13.33 8.67 17.24C8.67 19.98 8.25 22.58 6.67 24.75C9.15 25.61 11.33 26.1 13.99 26.1ZM18.4 8.54L24.24 4.37C25.04 3.8 26.13 3.89 26.82 4.58L28.42 6.18C29.11 6.87 29.2 7.96 28.63 8.75L24.45 14.6C24.71 15.43 24.84 16.32 24.84 17.24C24.84 23.23 19.98 28.1 13.99 28.1C11.12 28.1 8.26 27.61 5.56 26.67L3.02 25.78L4.6 23.6C5.94 21.76 6.67 19.53 6.67 17.24C6.67 12.23 10.75 8.15 15.76 8.15C16.68 8.15 17.56 8.29 18.4 8.54ZM23.37 12.67L27 7.59L25.41 5.99L20.35 9.62C21.48 10.35 22.63 11.54 23.37 12.67Z" fill="#26262A" fill-opacity="1.000000" fill-rule="evenodd"/>
</svg>
