<svg width="40.000000" height="40.000000" viewBox="0 0 40 40" fill="none" xmlns="http://www.w3.org/2000/svg" xmlns:xlink="http://www.w3.org/1999/xlink">
	<desc>
			Created with Pixso.
	</desc>
	<defs>
		<clipPath id="clip1001_3155">
			<rect id="computer 1" rx="-0.500000" width="21.000000" height="21.000000" transform="translate(9.500000 9.500000)" fill="white" fill-opacity="0"/>
		</clipPath>
	</defs>
	<rect id="Overlay" rx="6.500000" width="39.000000" height="39.000000" transform="translate(0.500000 0.500000)" fill="#FFFFFF" fill-opacity="1.000000"/>
	<rect id="computer 1" rx="-0.500000" width="21.000000" height="21.000000" transform="translate(9.500000 9.500000)" fill="#FFFFFF" fill-opacity="0"/>
	<g clip-path="url(#clip1001_3155)">
		<path id="Vector" d="M26.41 9.91L13.58 9.91C12.36 9.91 11.2 10.4 10.34 11.26C9.48 12.12 9 13.28 9 14.5L9 21.83C9 23.04 9.48 24.21 10.34 25.07C11.2 25.93 12.36 26.41 13.58 26.41L19.08 26.41L19.08 28.25L15.41 28.25C15.17 28.25 14.94 28.34 14.76 28.51C14.59 28.69 14.5 28.92 14.5 29.16C14.5 29.41 14.59 29.64 14.76 29.81C14.94 29.98 15.17 30.08 15.41 30.08L24.58 30.08C24.82 30.08 25.05 29.98 25.23 29.81C25.4 29.64 25.5 29.41 25.5 29.16C25.5 28.92 25.4 28.69 25.23 28.51C25.05 28.34 24.82 28.25 24.58 28.25L20.91 28.25L20.91 26.41L26.41 26.41C27.63 26.41 28.79 25.93 29.65 25.07C30.51 24.21 30.99 23.04 31 21.83L31 14.5C30.99 13.28 30.51 12.12 29.65 11.26C28.79 10.4 27.63 9.91 26.41 9.91ZM13.58 11.75L26.41 11.75C27.14 11.75 27.84 12.04 28.36 12.55C28.87 13.07 29.16 13.77 29.16 14.5L29.16 20.91L10.83 20.91L10.83 14.5C10.83 13.77 11.12 13.07 11.63 12.55C12.15 12.04 12.85 11.75 13.58 11.75ZM26.41 24.58L13.58 24.58C13.01 24.58 12.46 24.4 12 24.07C11.54 23.74 11.19 23.28 11 22.75L28.99 22.75C28.8 23.28 28.45 23.74 27.99 24.07C27.53 24.4 26.98 24.58 26.41 24.58Z" fill="#FFE53B" fill-opacity="1.000000" fill-rule="nonzero"/>
	</g>
</svg>
