<svg width="40.000000" height="40.000000" viewBox="0 0 40 40" fill="none" xmlns="http://www.w3.org/2000/svg" xmlns:xlink="http://www.w3.org/1999/xlink">
	<desc>
			Created with Pixso.
	</desc>
	<defs>
		<clipPath id="clip1001_3085">
			<rect id="chart-histogram 1" rx="-0.500000" width="19.000000" height="19.000000" transform="translate(10.500000 10.500000)" fill="white" fill-opacity="0"/>
		</clipPath>
	</defs>
	<rect id="Overlay" rx="6.500000" width="39.000000" height="39.000000" transform="translate(0.500000 0.500000)" fill="#40BCFF" fill-opacity="0.100000"/>
	<rect id="chart-histogram 1" rx="-0.500000" width="19.000000" height="19.000000" transform="translate(10.500000 10.500000)" fill="#FFFFFF" fill-opacity="0"/>
	<g clip-path="url(#clip1001_3085)">
		<path id="Vector" d="M29.16 28.33L14.16 28.33C13.5 28.33 12.86 28.06 12.39 27.6C11.93 27.13 11.66 26.49 11.66 25.83L11.66 10.83C11.66 10.61 11.57 10.4 11.42 10.24C11.26 10.08 11.05 10 10.83 10C10.61 10 10.4 10.08 10.24 10.24C10.08 10.4 10 10.61 10 10.83L10 25.83C10 26.93 10.44 27.99 11.22 28.77C12 29.55 13.06 29.99 14.16 30L29.16 30C29.38 30 29.59 29.91 29.75 29.75C29.91 29.59 30 29.38 30 29.16C30 28.94 29.91 28.73 29.75 28.57C29.59 28.42 29.38 28.33 29.16 28.33Z" fill="#40BDFF" fill-opacity="1.000000" fill-rule="nonzero"/>
		<path id="Vector" d="M15 26.66C15.22 26.66 15.43 26.57 15.58 26.42C15.74 26.26 15.83 26.05 15.83 25.83L15.83 19.99C15.83 19.77 15.74 19.56 15.58 19.41C15.43 19.25 15.22 19.16 15 19.16C14.77 19.16 14.56 19.25 14.41 19.41C14.25 19.56 14.16 19.77 14.16 19.99L14.16 25.83C14.16 26.05 14.25 26.26 14.41 26.42C14.56 26.57 14.77 26.66 15 26.66Z" fill="#40BDFF" fill-opacity="1.000000" fill-rule="nonzero"/>
		<path id="Vector" d="M18.33 18.33L18.33 25.83C18.33 26.05 18.42 26.26 18.57 26.42C18.73 26.57 18.94 26.66 19.16 26.66C19.38 26.66 19.59 26.57 19.75 26.42C19.91 26.26 19.99 26.05 19.99 25.83L19.99 18.33C19.99 18.11 19.91 17.9 19.75 17.74C19.59 17.58 19.38 17.5 19.16 17.5C18.94 17.5 18.73 17.58 18.57 17.74C18.42 17.9 18.33 18.11 18.33 18.33Z" fill="#40BDFF" fill-opacity="1.000000" fill-rule="nonzero"/>
		<path id="Vector" d="M22.5 20.83L22.5 25.83C22.5 26.05 22.58 26.26 22.74 26.42C22.9 26.57 23.11 26.66 23.33 26.66C23.55 26.66 23.76 26.57 23.92 26.42C24.07 26.26 24.16 26.05 24.16 25.83L24.16 20.83C24.16 20.61 24.07 20.4 23.92 20.24C23.76 20.08 23.55 20 23.33 20C23.11 20 22.9 20.08 22.74 20.24C22.58 20.4 22.5 20.61 22.5 20.83Z" fill="#40BDFF" fill-opacity="1.000000" fill-rule="nonzero"/>
		<path id="Vector" d="M26.66 17.49L26.66 25.83C26.66 26.05 26.75 26.26 26.91 26.42C27.06 26.57 27.27 26.66 27.5 26.66C27.72 26.66 27.93 26.57 28.08 26.42C28.24 26.26 28.33 26.05 28.33 25.83L28.33 17.49C28.33 17.27 28.24 17.06 28.08 16.91C27.93 16.75 27.72 16.66 27.5 16.66C27.27 16.66 27.06 16.75 26.91 16.91C26.75 17.06 26.66 17.27 26.66 17.49Z" fill="#40BDFF" fill-opacity="1.000000" fill-rule="nonzero"/>
		<path id="Vector" d="M15 17.5C15.22 17.5 15.43 17.41 15.58 17.25L18.57 14.26C18.73 14.11 18.94 14.03 19.16 14.03C19.38 14.03 19.59 14.11 19.75 14.26L21.56 16.07C22.03 16.54 22.67 16.8 23.33 16.8C23.99 16.8 24.63 16.54 25.1 16.07L29.75 11.42C29.9 11.26 29.99 11.05 29.98 10.83C29.98 10.61 29.9 10.4 29.74 10.25C29.59 10.09 29.38 10.01 29.16 10.01C28.94 10 28.73 10.09 28.57 10.24L23.92 14.89C23.76 15.05 23.55 15.14 23.33 15.14C23.11 15.14 22.9 15.05 22.74 14.89L20.93 13.08C20.46 12.62 19.82 12.35 19.16 12.35C18.5 12.35 17.86 12.62 17.39 13.08L14.41 16.07C14.29 16.19 14.21 16.34 14.18 16.5C14.15 16.66 14.16 16.83 14.23 16.98C14.29 17.13 14.4 17.26 14.53 17.35C14.67 17.45 14.83 17.5 15 17.5Z" fill="#40BDFF" fill-opacity="1.000000" fill-rule="nonzero"/>
	</g>
</svg>
