<svg width="40.000000" height="40.000000" viewBox="0 0 40 40" fill="none" xmlns="http://www.w3.org/2000/svg" xmlns:xlink="http://www.w3.org/1999/xlink">
	<desc>
			Created with Pixso.
	</desc>
	<defs>
		<clipPath id="clip1001_3164">
			<rect id="browser 1" rx="-0.500000" width="21.000000" height="21.000000" transform="translate(9.500000 9.500000)" fill="white" fill-opacity="0"/>
		</clipPath>
	</defs>
	<rect id="Overlay" rx="6.500000" width="39.000000" height="39.000000" transform="translate(0.500000 0.500000)" fill="#FFFFFF" fill-opacity="1.000000"/>
	<rect id="browser 1" rx="-0.500000" width="21.000000" height="21.000000" transform="translate(9.500000 9.500000)" fill="#FFFFFF" fill-opacity="0"/>
	<g clip-path="url(#clip1001_3164)">
		<path id="Vector" d="M26.41 9.91L13.58 9.91C12.36 9.91 11.2 10.4 10.34 11.26C9.48 12.12 9 13.28 9 14.5L9 25.5C9 26.71 9.48 27.88 10.34 28.73C11.2 29.59 12.36 30.08 13.58 30.08L26.41 30.08C27.63 30.08 28.79 29.59 29.65 28.73C30.51 27.88 30.99 26.71 31 25.5L31 14.5C30.99 13.28 30.51 12.12 29.65 11.26C28.79 10.4 27.63 9.91 26.41 9.91ZM13.58 11.75L26.41 11.75C27.14 11.75 27.84 12.04 28.36 12.55C28.87 13.07 29.16 13.77 29.16 14.5L29.16 15.41L10.83 15.41L10.83 14.5C10.83 13.77 11.12 13.07 11.63 12.55C12.15 12.04 12.85 11.75 13.58 11.75ZM26.41 28.25L13.58 28.25C12.85 28.25 12.15 27.96 11.63 27.44C11.12 26.92 10.83 26.22 10.83 25.5L10.83 17.25L29.16 17.25L29.16 25.5C29.16 26.22 28.87 26.92 28.36 27.44C27.84 27.96 27.14 28.25 26.41 28.25ZM26.41 20.91C26.41 21.16 26.32 21.39 26.14 21.56C25.97 21.73 25.74 21.83 25.5 21.83L14.5 21.83C14.25 21.83 14.02 21.73 13.85 21.56C13.67 21.39 13.58 21.16 13.58 20.91C13.58 20.67 13.67 20.44 13.85 20.26C14.02 20.09 14.25 20 14.5 20L25.5 20C25.74 20 25.97 20.09 26.14 20.26C26.32 20.44 26.41 20.67 26.41 20.91ZM22.75 24.58C22.75 24.82 22.65 25.05 22.48 25.23C22.3 25.4 22.07 25.5 21.83 25.5L14.5 25.5C14.25 25.5 14.02 25.4 13.85 25.23C13.67 25.05 13.58 24.82 13.58 24.58C13.58 24.34 13.67 24.1 13.85 23.93C14.02 23.76 14.25 23.66 14.5 23.66L21.83 23.66C22.07 23.66 22.3 23.76 22.48 23.93C22.65 24.1 22.75 24.34 22.75 24.58ZM11.75 13.58C11.75 13.4 11.8 13.22 11.9 13.07C12 12.92 12.14 12.8 12.31 12.73C12.48 12.66 12.66 12.64 12.84 12.68C13.02 12.72 13.18 12.8 13.31 12.93C13.44 13.06 13.53 13.22 13.56 13.4C13.6 13.58 13.58 13.76 13.51 13.93C13.44 14.1 13.32 14.24 13.17 14.34C13.02 14.44 12.84 14.5 12.66 14.5C12.42 14.5 12.19 14.4 12.01 14.23C11.84 14.05 11.75 13.82 11.75 13.58ZM14.5 13.58C14.5 13.4 14.55 13.22 14.65 13.07C14.75 12.92 14.89 12.8 15.06 12.73C15.23 12.66 15.41 12.64 15.59 12.68C15.77 12.72 15.93 12.8 16.06 12.93C16.19 13.06 16.28 13.22 16.31 13.4C16.35 13.58 16.33 13.76 16.26 13.93C16.19 14.1 16.07 14.24 15.92 14.34C15.77 14.44 15.59 14.5 15.41 14.5C15.17 14.5 14.94 14.4 14.76 14.23C14.59 14.05 14.5 13.82 14.5 13.58ZM17.25 13.58C17.25 13.4 17.3 13.22 17.4 13.07C17.5 12.92 17.64 12.8 17.81 12.73C17.98 12.66 18.16 12.64 18.34 12.68C18.52 12.72 18.68 12.8 18.81 12.93C18.94 13.06 19.03 13.22 19.06 13.4C19.1 13.58 19.08 13.76 19.01 13.93C18.94 14.1 18.82 14.24 18.67 14.34C18.52 14.44 18.34 14.5 18.16 14.5C17.92 14.5 17.69 14.4 17.51 14.23C17.34 14.05 17.25 13.82 17.25 13.58Z" fill="#40BDFF" fill-opacity="1.000000" fill-rule="nonzero"/>
	</g>
</svg>
