<svg width="40.000000" height="40.000000" viewBox="0 0 40 40" fill="none" xmlns="http://www.w3.org/2000/svg" xmlns:xlink="http://www.w3.org/1999/xlink">
	<desc>
			Created with Pixso.
	</desc>
	<defs>
		<clipPath id="clip1001_3099">
			<rect id="smart-home 1" rx="-0.500000" width="23.000000" height="23.000000" transform="translate(8.500000 8.500000)" fill="white" fill-opacity="0"/>
		</clipPath>
	</defs>
	<rect id="Overlay" rx="6.500000" width="39.000000" height="39.000000" transform="translate(0.500000 0.500000)" fill="#FFE53B" fill-opacity="0.100000"/>
	<rect id="smart-home 1" rx="-0.500000" width="23.000000" height="23.000000" transform="translate(8.500000 8.500000)" fill="#FFFFFF" fill-opacity="0"/>
	<g clip-path="url(#clip1001_3099)">
		<path id="Vector" d="M30.08 14.56L23.08 9.08C21.26 7.65 18.73 7.65 16.91 9.08L9.91 14.56C8.69 15.51 8 16.95 8 18.5L8 27C8 29.75 10.24 32 13 32L27 32C29.75 32 32 29.75 32 27L32 18.5C32 16.95 31.3 15.51 30.08 14.56ZM30 27C30 28.65 28.65 30 27 30L13 30C11.34 30 10 28.65 10 27L10 18.5C10 17.57 10.41 16.71 11.14 16.13L18.14 10.65C18.69 10.22 19.34 10.01 20 10.01C20.65 10.01 21.3 10.22 21.85 10.65L28.85 16.13C29.58 16.71 30 17.57 30 18.5L30 27ZM21.5 25.5C21.5 26.32 20.82 27 20 27C19.17 27 18.5 26.32 18.5 25.5C18.5 24.67 19.17 24 20 24C20.82 24 21.5 24.67 21.5 25.5ZM23.53 21.46C23.92 21.85 23.92 22.48 23.53 22.87C23.34 23.07 23.08 23.17 22.82 23.17C22.57 23.17 22.31 23.07 22.12 22.87C20.95 21.7 19.04 21.7 17.87 22.87C17.48 23.27 16.85 23.27 16.46 22.87C16.07 22.48 16.07 21.85 16.46 21.46C18.41 19.51 21.58 19.51 23.53 21.46ZM26.36 18.63C26.75 19.02 26.75 19.65 26.36 20.05C26.16 20.24 25.91 20.34 25.65 20.34C25.4 20.34 25.14 20.24 24.95 20.05C22.22 17.32 17.77 17.32 15.05 20.05C14.66 20.44 14.02 20.44 13.63 20.05C13.24 19.65 13.24 19.02 13.63 18.63C17.14 15.12 22.85 15.12 26.36 18.63Z" fill="#FFE53B" fill-opacity="1.000000" fill-rule="nonzero"/>
	</g>
</svg>
