<svg width="40.000000" height="40.000000" viewBox="0 0 40 40" fill="none" xmlns="http://www.w3.org/2000/svg" xmlns:xlink="http://www.w3.org/1999/xlink">
	<desc>
			Created with Pixso.
	</desc>
	<defs>
		<clipPath id="clip1001_3096">
			<rect id="heart 1" rx="-0.500000" width="20.000000" height="21.000000" transform="translate(10.000000 9.500000)" fill="white" fill-opacity="0"/>
		</clipPath>
	</defs>
	<rect id="Overlay" rx="6.500000" width="39.000000" height="39.000000" transform="translate(0.500000 0.500000)" fill="#FF92BB" fill-opacity="0.100000"/>
	<rect id="heart 1" rx="-0.500000" width="20.000000" height="21.000000" transform="translate(10.000000 9.500000)" fill="#FFFFFF" fill-opacity="0"/>
	<g clip-path="url(#clip1001_3096)">
		<path id="Vector" d="M24.59 10.69C23.69 10.7 22.81 10.93 22.01 11.36C21.21 11.79 20.52 12.41 20 13.17C19.47 12.41 18.78 11.79 17.98 11.36C17.18 10.93 16.3 10.7 15.4 10.69C13.78 10.76 12.24 11.5 11.13 12.75C10.03 14 9.44 15.66 9.5 17.36C9.5 21.53 13.58 26 17.02 29.01C17.85 29.75 18.91 30.15 20 30.15C21.09 30.15 22.14 29.75 22.98 29.01C26.41 26 30.5 21.53 30.5 17.36C30.56 15.66 29.97 14 28.86 12.75C27.75 11.5 26.22 10.76 24.59 10.69ZM21.29 26.91C20.93 27.23 20.47 27.4 19.99 27.4C19.52 27.4 19.06 27.23 18.7 26.91C14.52 23.23 12.12 19.75 12.12 17.36C12.06 16.39 12.38 15.43 12.99 14.69C13.61 13.96 14.47 13.51 15.4 13.44C16.33 13.51 17.2 13.96 17.81 14.69C18.42 15.43 18.74 16.39 18.68 17.36C18.68 17.73 18.82 18.07 19.07 18.33C19.31 18.59 19.65 18.74 20 18.74C20.34 18.74 20.68 18.59 20.92 18.33C21.17 18.07 21.31 17.73 21.31 17.36C21.25 16.39 21.56 15.43 22.18 14.69C22.79 13.96 23.66 13.51 24.59 13.44C25.52 13.51 26.38 13.96 27 14.69C27.61 15.43 27.93 16.39 27.87 17.36C27.87 19.75 25.47 23.23 21.29 26.91Z" fill="#F53466" fill-opacity="1.000000" fill-rule="nonzero"/>
	</g>
</svg>
