<svg width="46.383301" height="40.000000" viewBox="0 0 46.3833 40" fill="none" xmlns="http://www.w3.org/2000/svg" xmlns:xlink="http://www.w3.org/1999/xlink">
	<desc>
			Created with Pixso.
	</desc>
	<defs>
		<clipPath id="clip1001_3075">
			<rect id="laptop-mobile 1" rx="-0.500000" width="19.000000" height="19.000000" transform="translate(10.500000 10.500000)" fill="white" fill-opacity="0"/>
		</clipPath>
	</defs>
	<rect id="Overlay" rx="6.500000" width="45.383358" height="39.000000" transform="translate(0.500000 0.500000)" fill="#ECF8FF" fill-opacity="1.000000"/>
	<rect id="laptop-mobile 1" rx="-0.500000" width="19.000000" height="19.000000" transform="translate(10.500000 10.500000)" fill="#FFFFFF" fill-opacity="0"/>
	<g clip-path="url(#clip1001_3075)">
		<path id="Vector" d="M11.66 22.5C11.66 22.95 12.04 23.33 12.5 23.33L19.16 23.33C19.62 23.33 20 23.7 20 24.16C20 24.62 19.62 25 19.16 25L12.5 25C11.12 25 10 23.87 10 22.5C10 21.41 10.7 20.5 11.66 20.14L11.66 14.16C11.66 11.86 13.53 10 15.83 10L24.16 10C26.46 10 28.33 11.86 28.33 14.16L28.33 15C28.33 15.45 27.95 15.83 27.5 15.83C27.04 15.83 26.66 15.45 26.66 15L26.66 14.16C26.66 12.79 25.54 11.66 24.16 11.66L15.83 11.66C14.45 11.66 13.33 12.79 13.33 14.16L13.33 20L17.08 20C17.3 20 17.51 20.09 17.67 20.24L18.26 20.83L19.17 20.83C19.63 20.83 20 21.2 20 21.66C20 22.12 19.63 22.5 19.17 22.5L17.92 22.5C17.7 22.5 17.49 22.4 17.33 22.25L16.74 21.66L12.5 21.66C12.04 21.66 11.66 22.04 11.66 22.5ZM30 20.83L30 26.66C30 28.5 28.5 30 26.66 30L25 30C23.15 30 21.66 28.5 21.66 26.66L21.66 20.83C21.66 18.99 23.15 17.5 25 17.5L26.66 17.5C28.5 17.5 30 18.99 30 20.83ZM28.33 20.83C28.33 19.91 27.58 19.16 26.66 19.16L25 19.16C24.08 19.16 23.33 19.91 23.33 20.83L23.33 26.66C23.33 27.58 24.08 28.33 25 28.33L26.66 28.33C27.58 28.33 28.33 27.58 28.33 26.66L28.33 20.83Z" fill="#40BDFF" fill-opacity="1.000000" fill-rule="nonzero"/>
	</g>
</svg>
