<svg width="40.000000" height="40.000000" viewBox="0 0 40 40" fill="none" xmlns="http://www.w3.org/2000/svg" xmlns:xlink="http://www.w3.org/1999/xlink">
	<desc>
			Created with Pixso.
	</desc>
	<defs>
		<clipPath id="clip1001_3104">
			<rect id="flame 1" rx="-0.500000" width="22.000000" height="22.000000" transform="translate(9.000000 9.000000)" fill="white" fill-opacity="0"/>
		</clipPath>
	</defs>
	<rect id="Background" rx="6.500000" width="39.000000" height="39.000000" transform="translate(0.500000 0.500000)" fill="#FF92BB" fill-opacity="0.100000"/>
	<rect id="flame 1" rx="-0.500000" width="22.000000" height="22.000000" transform="translate(9.000000 9.000000)" fill="#FFFFFF" fill-opacity="0"/>
	<g clip-path="url(#clip1001_3104)">
		<path id="Vector" d="M24.43 11.27C23.68 10.64 22.89 9.96 22.08 9.23C21.46 8.67 20.63 8.41 19.8 8.52C19 8.63 18.29 9.08 17.86 9.77C16.71 11.67 15.91 13.77 15.47 15.95C15.3 15.7 15.14 15.44 15.01 15.17C14.56 14.21 13.41 13.8 12.46 14.26C12.23 14.37 12.02 14.52 11.85 14.71C10.24 16.35 9.35 18.57 9.37 20.87C9.32 25.7 12.57 29.94 17.25 31.15C18.12 31.37 19.01 31.48 19.91 31.49C19.94 31.49 20.24 31.48 20.37 31.48C26.09 31.29 30.63 26.6 30.62 20.87C30.62 16.53 27.75 14.1 24.43 11.27ZM19.89 29.56C19.17 29.51 18.47 29.22 17.94 28.79C17.1 28.2 16.55 27.34 16.42 26.34C16.26 24.79 17.22 22.75 19.17 20.46C19.38 20.22 19.68 20.08 19.99 20.08C20.31 20.08 20.6 20.22 20.8 20.46C22.6 22.59 23.58 24.55 23.58 25.99C23.58 27.88 22.1 29.37 20.22 29.56C20.14 29.56 19.99 29.58 19.89 29.56ZM25.34 27.74C25.28 27.79 25.22 27.82 25.16 27.86C25.38 27.26 25.5 26.63 25.5 25.99C25.5 23.56 23.74 20.97 22.27 19.22C21.7 18.55 20.87 18.17 20 18.16L19.99 18.16C19.12 18.16 18.29 18.55 17.72 19.21C15.37 21.96 14.3 24.42 14.52 26.54C14.57 27.03 14.7 27.51 14.89 27.97C12.62 26.32 11.27 23.68 11.29 20.87C11.27 19.04 11.99 17.28 13.29 16C13.51 16.46 13.77 16.89 14.08 17.3C14.5 17.87 15.22 18.13 15.91 17.97C16.61 17.82 17.15 17.26 17.3 16.56C17.68 14.52 18.42 12.57 19.47 10.79C19.6 10.58 19.81 10.45 20.05 10.42C20.32 10.38 20.59 10.47 20.79 10.65C21.61 11.4 22.42 12.09 23.19 12.74C26.39 15.45 28.7 17.42 28.7 20.87C28.71 23.56 27.47 26.1 25.34 27.74L25.34 27.74Z" fill="#F53466" fill-opacity="1.000000" fill-rule="nonzero"/>
	</g>
</svg>
