<svg width="40.000000" height="40.000000" viewBox="0 0 40 40" fill="none" xmlns="http://www.w3.org/2000/svg" xmlns:xlink="http://www.w3.org/1999/xlink">
	<desc>
			Created with Pixso.
	</desc>
	<defs>
		<clipPath id="clip1001_3080">
			<rect id="magic-wand 1" rx="-0.500000" width="19.000000" height="19.000000" transform="translate(10.500000 10.500000)" fill="white" fill-opacity="0"/>
		</clipPath>
	</defs>
	<rect id="Overlay" rx="6.500000" width="39.000000" height="39.000000" transform="translate(0.500000 0.500000)" fill="#00C94E" fill-opacity="0.100000"/>
	<rect id="magic-wand 1" rx="-0.500000" width="19.000000" height="19.000000" transform="translate(10.500000 10.500000)" fill="#FFFFFF" fill-opacity="0"/>
	<g clip-path="url(#clip1001_3080)">
		<path id="Vector" d="M25 17.55C25 17.21 24.93 16.88 24.8 16.57C24.67 16.26 24.48 15.98 24.25 15.75C23.76 15.28 23.11 15.02 22.44 15.02C21.77 15.02 21.12 15.28 20.63 15.75L10.75 25.64C10.29 26.12 10.05 26.76 10.06 27.42C10.07 28.08 10.34 28.71 10.81 29.18C11.27 29.65 11.91 29.92 12.57 29.93C13.23 29.94 13.87 29.7 14.35 29.25L24.25 19.35C24.48 19.12 24.67 18.84 24.8 18.53C24.93 18.22 25 17.88 25 17.55ZM13.18 28.07C13.01 28.23 12.78 28.32 12.55 28.32C12.32 28.32 12.09 28.23 11.93 28.07C11.76 27.9 11.67 27.68 11.67 27.44C11.67 27.21 11.76 26.98 11.93 26.82L18.4 20.34L19.65 21.6L13.18 28.07ZM23.07 18.18L20.83 20.42L19.58 19.16L21.82 16.92C21.9 16.83 22 16.76 22.11 16.7C22.22 16.65 22.34 16.62 22.46 16.62C22.58 16.62 22.7 16.64 22.81 16.68C22.92 16.73 23.03 16.79 23.11 16.88C23.2 16.96 23.27 17.07 23.31 17.18C23.35 17.29 23.38 17.41 23.37 17.53C23.37 17.66 23.34 17.78 23.29 17.88C23.23 17.99 23.16 18.09 23.07 18.17L23.07 18.18ZM14.05 12.37L15.34 12.01L15.71 10.71C15.77 10.51 15.89 10.32 16.06 10.2C16.24 10.07 16.45 10 16.66 10C16.88 10 17.09 10.07 17.26 10.2C17.43 10.32 17.56 10.51 17.62 10.71L17.98 12.01L19.28 12.37C19.48 12.43 19.67 12.56 19.8 12.73C19.93 12.9 20 13.11 20 13.33C20 13.54 19.93 13.75 19.8 13.93C19.67 14.1 19.48 14.22 19.28 14.28L17.98 14.65L17.62 15.94C17.56 16.15 17.43 16.33 17.26 16.46C17.09 16.59 16.88 16.66 16.66 16.66C16.45 16.66 16.24 16.59 16.06 16.46C15.89 16.33 15.77 16.15 15.71 15.94L15.34 14.65L14.05 14.28C13.84 14.22 13.66 14.1 13.53 13.93C13.4 13.75 13.33 13.54 13.33 13.33C13.33 13.11 13.4 12.9 13.53 12.73C13.66 12.56 13.84 12.43 14.05 12.37ZM29.28 24.28L27.98 24.65L27.62 25.94C27.56 26.15 27.43 26.33 27.26 26.46C27.09 26.59 26.88 26.66 26.66 26.66C26.45 26.66 26.24 26.59 26.06 26.46C25.89 26.33 25.77 26.15 25.71 25.94L25.34 24.65L24.05 24.28C23.84 24.22 23.66 24.1 23.53 23.93C23.4 23.75 23.33 23.54 23.33 23.33C23.33 23.11 23.4 22.9 23.53 22.73C23.66 22.56 23.84 22.43 24.05 22.37L25.34 22.01L25.71 20.71C25.77 20.51 25.89 20.32 26.06 20.2C26.24 20.07 26.45 20 26.66 20C26.88 20 27.09 20.07 27.26 20.2C27.43 20.32 27.56 20.51 27.62 20.71L27.98 22.01L29.28 22.37C29.48 22.43 29.67 22.56 29.8 22.73C29.93 22.9 30 23.11 30 23.33C30 23.54 29.93 23.75 29.8 23.93C29.67 24.1 29.48 24.22 29.28 24.28ZM24.79 12.08L25.92 11.76L26.25 10.62C26.3 10.44 26.41 10.29 26.56 10.17C26.71 10.06 26.89 10 27.08 10C27.27 10 27.45 10.06 27.6 10.17C27.75 10.29 27.86 10.44 27.91 10.62L28.23 11.75L29.36 12.08C29.54 12.13 29.7 12.24 29.82 12.39C29.93 12.54 29.99 12.72 29.99 12.91C29.99 13.1 29.93 13.28 29.82 13.43C29.7 13.58 29.54 13.69 29.36 13.74L28.23 14.07L27.91 15.2C27.86 15.38 27.75 15.54 27.6 15.65C27.45 15.76 27.27 15.82 27.08 15.82C26.89 15.82 26.71 15.76 26.56 15.65C26.41 15.54 26.3 15.38 26.25 15.2L25.92 14.07L24.79 13.75C24.61 13.69 24.45 13.58 24.34 13.43C24.23 13.28 24.17 13.1 24.17 12.91C24.17 12.72 24.23 12.54 24.34 12.39C24.45 12.24 24.61 12.13 24.79 12.08Z" fill="#00C94E" fill-opacity="1.000000" fill-rule="nonzero"/>
	</g>
</svg>
